<svg xmlns="http://www.w3.org/2000/svg" xmlns:xlink="http://www.w3.org/1999/xlink" version="1.1" width="256" height="256" viewBox="0 0 256 256" xml:space="preserve">
<g style="stroke: none; stroke-width: 0; stroke-dasharray: none; stroke-linecap: butt; stroke-linejoin: miter; stroke-miterlimit: 10; fill: none; fill-rule: nonzero; opacity: 1;" transform="translate(1.4065934065934016 1.4065934065934016) scale(2.81 2.81)">
	<polygon points="64.5,10.46 50.2,9.27 2.14,8.54 2.14,82.49 53.44,82.49 70.53,77.84 82.17,67.75 87.86,51.89 87.86,33.56 79.35,18.83 " style="stroke: none; stroke-width: 1; stroke-dasharray: none; stroke-linecap: butt; stroke-linejoin: miter; stroke-miterlimit: 10; fill: rgb(255,255,255); fill-rule: nonzero; opacity: 1;" transform="  matrix(1 0 0 1 0 0) "/>
	<path d="M 3.656 9.783 v 70.432 h 42.792 c 25.84 0 39.897 -12.037 39.897 -35.306 c 0 -23.913 -15.237 -35.126 -39.897 -35.126 L 3.656 9.783 L 3.656 9.783 z M 46.448 6.128 C 84.342 6.128 90 30.428 90 44.909 c 0 25.126 -15.466 38.963 -43.552 38.963 c 0 0 -45.531 0 -46.448 0 C 0 82.952 0 7.046 0 6.128 C 0.917 6.128 46.448 6.128 46.448 6.128 z" style="stroke: none; stroke-width: 1; stroke-dasharray: none; stroke-linecap: butt; stroke-linejoin: miter; stroke-miterlimit: 10; fill: rgb(10,11,9); fill-rule: nonzero; opacity: 1;" transform=" matrix(1 0 0 1 0 0) " stroke-linecap="round"/>
	<path d="M 30.057 33.989 c 0 2.202 0 5.746 0 7.947 c 1.207 0 2.439 0 2.439 0 c 1.69 0 3.251 -0.488 3.251 -4.036 c 0 -3.467 -1.737 -3.911 -3.251 -3.911 C 32.496 33.989 31.263 33.989 30.057 33.989 z M 70.749 30.036 h 3.946 c 0 0 0 8.996 0 11.9 c 0.875 0 3.278 0 5.847 0 c -1.604 -21.593 -18.59 -26.258 -34.025 -26.258 H 30.06 v 14.366 h 2.436 c 4.441 0 7.2 3.012 7.2 7.856 c 0 4.998 -2.693 7.982 -7.2 7.982 H 30.06 v 28.746 h 16.457 c 25.096 0 33.829 -11.654 34.138 -28.746 h -9.905 V 30.036 z M 59.755 38.878 h 2.855 l -1.305 -4.48 h -0.237 L 59.755 38.878 L 59.755 38.878 z M 53.597 45.887 l 4.778 -15.851 h 5.614 l 4.777 15.851 h -4.108 l -0.896 -3.066 h -5.162 l -0.898 3.066 H 53.597 L 53.597 45.887 z M 51.702 41.937 v 3.946 H 41.94 v -15.84 h 9.447 v 3.944 c 0 0 -3.362 0 -5.5 0 c 0 0.544 0 1.167 0 1.836 h 5.202 v 3.943 h -5.202 c 0 0.792 0 1.538 0 2.171 C 48.087 41.937 51.702 41.937 51.702 41.937 L 51.702 41.937 z" style="stroke: none; stroke-width: 1; stroke-dasharray: none; stroke-linecap: butt; stroke-linejoin: miter; stroke-miterlimit: 10; fill: rgb(213,1,114); fill-rule: nonzero; opacity: 1;" transform=" matrix(1 0 0 1 0 0) " stroke-linecap="round"/>
	<path d="M 24.893 37.956 c 0 4.703 -3.81 8.515 -8.513 8.515 c -4.7 0 -8.514 -3.812 -8.514 -8.515 c 0 -4.699 3.814 -8.513 8.514 -8.513 C 21.082 29.443 24.893 33.257 24.893 37.956 M 9.551 74.615 h 13.698 V 50.229 H 9.551 L 9.551 74.615 z" style="stroke: none; stroke-width: 1; stroke-dasharray: none; stroke-linecap: butt; stroke-linejoin: miter; stroke-miterlimit: 10; fill: rgb(0,0,0); fill-rule: nonzero; opacity: 1;" transform=" matrix(1 0 0 1 0 0) " stroke-linecap="round"/>
</g>
</svg>